<svg xmlns="http://www.w3.org/2000/svg" xmlns:xlink="http://www.w3.org/1999/xlink" width="600" zoomAndPan="magnify" viewBox="0 0 450 225" height="300" preserveAspectRatio="xMidYMid meet" version="1.0"><defs><g/><clipPath id="id1"><path d="M 3.011719 54.980469 L 193.496094 54.980469 L 193.496094 175.730469 L 3.011719 175.730469 Z M 3.011719 54.980469 " clip-rule="nonzero"/></clipPath></defs><path fill="#51759c" d="M 47.246094 155.714844 C 34.253906 155.714844 23.371094 145.445312 23.125 132.46875 C 22.871094 119.1875 33.613281 108.308594 46.847656 108.308594 C 47.230469 108.308594 47.722656 108.34375 48.238281 108.382812 L 48.269531 108.382812 C 55.226562 108.910156 61.628906 104.570312 63.722656 97.914062 C 67.636719 84.417969 80.195312 74.988281 94.257812 74.988281 C 104.425781 74.988281 113.753906 79.710938 119.84375 87.953125 C 123.289062 92.613281 129.167969 94.800781 134.824219 93.511719 C 137.230469 92.972656 139.59375 92.695312 141.839844 92.695312 C 159.390625 92.695312 173.644531 107.09375 173.375 124.691406 C 173.109375 141.976562 158.671875 155.710938 141.363281 155.710938 L 47.246094 155.710938 Z M 47.246094 155.714844 " fill-opacity="1" fill-rule="nonzero"/><g clip-path="url(#id1)"><path fill="#51759c" d="M 141.839844 175.726562 L 46.847656 175.726562 C 22.71875 175.726562 3.089844 156.117188 3.089844 132.011719 C 3.089844 108.242188 22.175781 88.84375 45.84375 88.308594 C 53.433594 68.488281 72.769531 54.980469 94.253906 54.980469 C 109.445312 54.980469 123.976562 61.789062 133.785156 73.347656 C 136.5 72.910156 139.191406 72.695312 141.835938 72.695312 C 170.269531 72.695312 193.398438 95.804688 193.398438 124.214844 C 193.398438 152.613281 170.269531 175.726562 141.839844 175.726562 Z M 46.847656 99.121094 C 28.527344 99.121094 13.652344 114.148438 13.929688 132.519531 C 14.203125 150.5625 29.28125 164.894531 47.347656 164.894531 L 141.316406 164.894531 C 163.742188 164.894531 182.347656 147.007812 182.566406 124.605469 C 182.785156 101.984375 164.425781 83.511719 141.839844 83.511719 C 138.902344 83.511719 135.859375 83.867188 132.789062 84.558594 C 130.691406 85.035156 128.511719 84.222656 127.234375 82.496094 C 119.390625 71.890625 107.375 65.800781 94.257812 65.800781 C 76.132812 65.800781 59.945312 77.953125 54.898438 95.355469 C 54.1875 97.804688 51.859375 99.425781 49.3125 99.246094 C 48.261719 99.179688 47.5625 99.121094 46.847656 99.121094 Z M 46.847656 99.121094 " fill-opacity="1" fill-rule="nonzero"/></g><g fill="#191d24" fill-opacity="1"><g transform="translate(201.890572, 162.619486)"><g><path d="M 50.71875 0 L 39.578125 0 L 33.34375 -24.21875 C 33.101562 -25.082031 32.703125 -26.863281 32.140625 -29.5625 C 31.585938 -32.269531 31.269531 -34.085938 31.1875 -35.015625 C 31.0625 -33.878906 30.742188 -32.050781 30.234375 -29.53125 C 29.734375 -27.019531 29.347656 -25.226562 29.078125 -24.15625 L 22.859375 0 L 11.765625 0 L 0 -46.109375 L 9.625 -46.109375 L 15.515625 -20.9375 C 16.546875 -16.289062 17.289062 -12.265625 17.75 -8.859375 C 17.882812 -10.054688 18.175781 -11.910156 18.625 -14.421875 C 19.070312 -16.941406 19.5 -18.894531 19.90625 -20.28125 L 26.625 -46.109375 L 35.859375 -46.109375 L 42.578125 -20.28125 C 42.867188 -19.125 43.234375 -17.359375 43.671875 -14.984375 C 44.117188 -12.609375 44.457031 -10.566406 44.6875 -8.859375 C 44.894531 -10.503906 45.226562 -12.550781 45.6875 -15 C 46.15625 -17.445312 46.582031 -19.425781 46.96875 -20.9375 L 52.828125 -46.109375 L 62.453125 -46.109375 Z M 50.71875 0 "/></g></g></g><g fill="#191d24" fill-opacity="1"><g transform="translate(266.019191, 162.619486)"><g><path d="M 19.65625 -29.078125 C 17.613281 -29.078125 16.015625 -28.429688 14.859375 -27.140625 C 13.703125 -25.847656 13.039062 -24.015625 12.875 -21.640625 L 26.375 -21.640625 C 26.320312 -24.015625 25.695312 -25.847656 24.5 -27.140625 C 23.300781 -28.429688 21.6875 -29.078125 19.65625 -29.078125 Z M 21 0.625 C 15.320312 0.625 10.882812 -0.9375 7.6875 -4.0625 C 4.5 -7.195312 2.90625 -11.632812 2.90625 -17.375 C 2.90625 -23.28125 4.378906 -27.847656 7.328125 -31.078125 C 10.285156 -34.304688 14.375 -35.921875 19.59375 -35.921875 C 24.570312 -35.921875 28.445312 -34.5 31.21875 -31.65625 C 34 -28.820312 35.390625 -24.90625 35.390625 -19.90625 L 35.390625 -15.234375 L 12.640625 -15.234375 C 12.753906 -12.503906 13.566406 -10.367188 15.078125 -8.828125 C 16.585938 -7.296875 18.710938 -6.53125 21.453125 -6.53125 C 23.566406 -6.53125 25.570312 -6.75 27.46875 -7.1875 C 29.363281 -7.632812 31.34375 -8.335938 33.40625 -9.296875 L 33.40625 -1.859375 C 31.71875 -1.015625 29.914062 -0.390625 28 0.015625 C 26.09375 0.421875 23.757812 0.625 21 0.625 Z M 21 0.625 "/></g></g></g><g fill="#191d24" fill-opacity="1"><g transform="translate(305.862075, 162.619486)"><g><path d="M 27.4375 0 L 25.578125 -4.796875 L 25.328125 -4.796875 C 23.703125 -2.753906 22.03125 -1.335938 20.3125 -0.546875 C 18.601562 0.234375 16.375 0.625 13.625 0.625 C 10.238281 0.625 7.570312 -0.335938 5.625 -2.265625 C 3.6875 -4.203125 2.71875 -6.957031 2.71875 -10.53125 C 2.71875 -14.28125 4.023438 -17.039062 6.640625 -18.8125 C 9.253906 -20.59375 13.203125 -21.578125 18.484375 -21.765625 L 24.59375 -21.953125 L 24.59375 -23.5 C 24.59375 -27.070312 22.765625 -28.859375 19.109375 -28.859375 C 16.296875 -28.859375 12.984375 -28.003906 9.171875 -26.296875 L 6 -32.796875 C 10.050781 -34.921875 14.546875 -35.984375 19.484375 -35.984375 C 24.222656 -35.984375 27.851562 -34.953125 30.375 -32.890625 C 32.894531 -30.835938 34.15625 -27.707031 34.15625 -23.5 L 34.15625 0 Z M 24.59375 -16.34375 L 20.875 -16.21875 C 18.082031 -16.125 16 -15.613281 14.625 -14.6875 C 13.257812 -13.769531 12.578125 -12.363281 12.578125 -10.46875 C 12.578125 -7.757812 14.132812 -6.40625 17.25 -6.40625 C 19.476562 -6.40625 21.257812 -7.046875 22.59375 -8.328125 C 23.925781 -9.609375 24.59375 -11.3125 24.59375 -13.4375 Z M 24.59375 -16.34375 "/></g></g></g><g fill="#191d24" fill-opacity="1"><g transform="translate(346.556543, 162.619486)"><g><path d="M 19.90625 -7.03125 C 21.582031 -7.03125 23.597656 -7.398438 25.953125 -8.140625 L 25.953125 -0.984375 C 23.554688 0.0859375 20.613281 0.625 17.125 0.625 C 13.28125 0.625 10.476562 -0.34375 8.71875 -2.28125 C 6.96875 -4.226562 6.09375 -7.144531 6.09375 -11.03125 L 6.09375 -28.03125 L 1.484375 -28.03125 L 1.484375 -32.109375 L 6.78125 -35.328125 L 9.5625 -42.765625 L 15.703125 -42.765625 L 15.703125 -35.265625 L 25.578125 -35.265625 L 25.578125 -28.03125 L 15.703125 -28.03125 L 15.703125 -11.03125 C 15.703125 -9.664062 16.085938 -8.65625 16.859375 -8 C 17.628906 -7.351562 18.644531 -7.03125 19.90625 -7.03125 Z M 19.90625 -7.03125 "/></g></g></g><g fill="#191d24" fill-opacity="1"><g transform="translate(376.275109, 162.619486)"><g><path d="M 37.59375 0 L 27.96875 0 L 27.96875 -20.59375 C 27.96875 -25.6875 26.078125 -28.234375 22.296875 -28.234375 C 19.609375 -28.234375 17.664062 -27.316406 16.46875 -25.484375 C 15.269531 -23.648438 14.671875 -20.6875 14.671875 -16.59375 L 14.671875 0 L 5.046875 0 L 5.046875 -49.078125 L 14.671875 -49.078125 L 14.671875 -39.078125 C 14.671875 -38.296875 14.59375 -36.46875 14.4375 -33.59375 L 14.21875 -30.75 L 14.734375 -30.75 C 16.878906 -34.195312 20.285156 -35.921875 24.953125 -35.921875 C 29.085938 -35.921875 32.226562 -34.804688 34.375 -32.578125 C 36.519531 -30.347656 37.59375 -27.15625 37.59375 -23 Z M 37.59375 0 "/></g></g></g><g fill="#191d24" fill-opacity="1"><g transform="translate(420.407416, 162.619486)"><g><path d="M 24.734375 -35.921875 C 26.035156 -35.921875 27.113281 -35.828125 27.96875 -35.640625 L 27.25 -26.625 C 26.46875 -26.832031 25.519531 -26.9375 24.40625 -26.9375 C 21.34375 -26.9375 18.953125 -26.144531 17.234375 -24.5625 C 15.523438 -22.988281 14.671875 -20.785156 14.671875 -17.953125 L 14.671875 0 L 5.046875 0 L 5.046875 -35.265625 L 12.328125 -35.265625 L 13.75 -29.328125 L 14.21875 -29.328125 C 15.3125 -31.304688 16.789062 -32.898438 18.65625 -34.109375 C 20.519531 -35.316406 22.546875 -35.921875 24.734375 -35.921875 Z M 24.734375 -35.921875 "/></g></g></g></svg>